<svg width="200" height="200" viewBox="0 0 200 200" xmlns="http://www.w3.org/2000/svg">
  <!-- Background -->
  <rect width="200" height="200" fill="#f8fafc"/>
  
  <!-- Calendar Icon -->
  <g transform="translate(50, 50)">
    <!-- Calendar Base -->
    <rect x="0" y="0" width="100" height="80" rx="8" fill="white" stroke="#e2e8f0" stroke-width="2"/>
    
    <!-- Calendar Header -->
    <rect x="0" y="0" width="100" height="25" rx="8" fill="#4f46e5"/>
    
    <!-- Calendar Grid -->
    <g stroke="#e2e8f0" stroke-width="1" fill="none">
      <!-- Vertical lines -->
      <line x1="25" y1="25" x2="25" y2="80"/>
      <line x1="50" y1="25" x2="50" y2="80"/>
      <line x1="75" y1="25" x2="75" y2="80"/>
      
      <!-- Horizontal lines -->
      <line x1="0" y1="40" x2="100" y2="40"/>
      <line x1="0" y1="55" x2="100" y2="55"/>
      <line x1="0" y1="70" x2="100" y2="70"/>
    </g>
    
    <!-- Calendar Numbers -->
    <text x="8" y="38" font-family="Arial, sans-serif" font-size="8" fill="#374151">1</text>
    <text x="33" y="38" font-family="Arial, sans-serif" font-size="8" fill="#374151">2</text>
    <text x="58" y="38" font-family="Arial, sans-serif" font-size="8" fill="#374151">3</text>
    <text x="83" y="38" font-family="Arial, sans-serif" font-size="8" fill="#374151">4</text>
    
    <text x="8" y="53" font-family="Arial, sans-serif" font-size="8" fill="#374151">5</text>
    <text x="33" y="53" font-family="Arial, sans-serif" font-size="8" fill="#374151">6</text>
    <text x="58" y="53" font-family="Arial, sans-serif" font-size="8" fill="#374151">7</text>
    <text x="83" y="53" font-family="Arial, sans-serif" font-size="8" fill="#374151">8</text>
    
    <text x="8" y="68" font-family="Arial, sans-serif" font-size="8" fill="#374151">9</text>
    <text x="33" y="68" font-family="Arial, sans-serif" font-size="8" fill="#374151">10</text>
    <text x="58" y="68" font-family="Arial, sans-serif" font-size="8" fill="#374151">11</text>
    <text x="83" y="68" font-family="Arial, sans-serif" font-size="8" fill="#374151">12</text>
  </g>
  
  <!-- Text -->
  <text x="100" y="170" text-anchor="middle" font-family="Arial, sans-serif" font-size="14" fill="#64748b">
    Calendar Cubby
  </text>
</svg>
